<svg width="402" height="212" viewBox="0 0 402 212" fill="none" xmlns="http://www.w3.org/2000/svg">
<path d="M1.488 178.984H9.6L17.376 192.952L25.008 178.984H33.168L34.656 211H26.064L25.296 192.232L19.68 203.176H15.024L8.784 192.232L8.16 211H0L1.488 178.984Z" fill="white"/>
<path d="M51.7658 178.984H60.2617V211H51.7658V178.984Z" fill="white"/>
<path d="M78.0157 178.984H86.5117V203.512H101.344V211H78.0157V178.984Z" fill="white"/>
<path d="M117.203 178.984H125.699V203.512H140.531V211H117.203V178.984Z" fill="white"/>
<path d="M159.824 200.872C160.72 201.768 161.888 202.584 163.328 203.32C164.768 204.056 166.352 204.424 168.08 204.424C168.496 204.424 168.928 204.392 169.376 204.328C169.824 204.232 170.224 204.088 170.576 203.896C170.928 203.704 171.216 203.448 171.44 203.128C171.664 202.808 171.776 202.392 171.776 201.88C171.776 201.048 171.344 200.36 170.48 199.816C169.648 199.272 168.416 198.728 166.784 198.184L165.008 197.608C164.016 197.288 163.008 196.872 161.984 196.36C160.992 195.848 160.096 195.24 159.296 194.536C158.496 193.8 157.84 192.952 157.328 191.992C156.848 191 156.608 189.848 156.608 188.536C156.608 187.064 156.88 185.704 157.424 184.456C157.968 183.176 158.752 182.072 159.776 181.144C160.832 180.184 162.128 179.448 163.664 178.936C165.2 178.392 166.976 178.12 168.992 178.12C170.56 178.12 171.984 178.264 173.264 178.552C174.544 178.84 175.664 179.192 176.624 179.608C177.584 180.024 178.4 180.472 179.072 180.952C179.744 181.432 180.256 181.864 180.608 182.248L176.288 187.72C175.168 186.888 174 186.216 172.784 185.704C171.568 185.16 170.32 184.888 169.04 184.888C168.624 184.888 168.208 184.936 167.792 185.032C167.376 185.128 166.992 185.272 166.64 185.464C166.32 185.656 166.048 185.912 165.824 186.232C165.632 186.52 165.536 186.888 165.536 187.336C165.536 187.816 165.648 188.232 165.872 188.584C166.128 188.936 166.464 189.24 166.88 189.496C167.296 189.752 167.792 189.992 168.368 190.216C168.976 190.408 169.616 190.616 170.288 190.84L171.824 191.32C172.912 191.672 174.016 192.088 175.136 192.568C176.256 193.016 177.264 193.64 178.16 194.44C179.056 195.208 179.792 196.184 180.368 197.368C180.944 198.52 181.232 199.944 181.232 201.64C181.232 203.112 180.88 204.472 180.176 205.72C179.504 206.968 178.576 208.04 177.392 208.936C176.24 209.832 174.864 210.52 173.264 211C171.696 211.512 170.016 211.768 168.224 211.768C165.024 211.768 162.336 211.352 160.16 210.52C158.016 209.656 156.192 208.504 154.688 207.064L159.824 200.872Z" fill="white"/>
<path d="M205.561 186.424H195.721V178.984H223.897V186.424H214.153V211H205.561V186.424Z" fill="white"/>
<path d="M239.734 178.984H252.982C254.71 178.984 256.262 179.208 257.638 179.656C259.046 180.104 260.246 180.776 261.238 181.672C262.23 182.536 262.999 183.624 263.543 184.936C264.087 186.248 264.358 187.768 264.358 189.496C264.358 191.608 263.895 193.448 262.966 195.016C262.038 196.552 260.807 197.784 259.271 198.712L266.134 211H257.014L251.59 200.104H248.038V211H239.734V178.984ZM252.167 193.432C253.286 193.432 254.199 193.096 254.902 192.424C255.606 191.72 255.958 190.792 255.958 189.64C255.958 188.424 255.622 187.464 254.951 186.76C254.279 186.056 253.335 185.704 252.118 185.704H248.038V193.432H252.167Z" fill="white"/>
<path d="M281.875 178.984H304.915V186.328H290.371V191.272H302.323V198.184H290.371V203.656H305.923V211H281.875V178.984Z" fill="white"/>
<path d="M331.4 178.984H341.144L352.472 211H343.304L341.24 204.376H330.536L328.424 211H319.64L331.4 178.984ZM339.512 198.184L335.96 186.424L332.264 198.184H339.512Z" fill="white"/>
<path d="M368.379 178.984H376.491L384.267 192.952L391.899 178.984H400.059L401.547 211H392.955L392.187 192.232L386.571 203.176H381.915L375.675 192.232L375.051 211H366.891L368.379 178.984Z" fill="white"/>
<path d="M323.948 71.3198C325.617 72.2902 325.617 74.7098 323.948 75.6802L201.857 146.661C201.079 147.113 200.121 147.113 199.342 146.661L77.2513 75.6802C75.5829 74.7098 75.5829 72.2902 77.2513 71.3198L199.342 0.339487C200.121 -0.113162 201.079 -0.113162 201.857 0.339487L323.948 71.3198Z" fill="white"/>
<path fill-rule="evenodd" clip-rule="evenodd" d="M190.439 23.9548C190.721 24.2049 191.104 24.3579 191.56 24.3567C197.702 23.9793 203.93 23.9793 210.147 24.3583C210.56 24.3583 210.935 24.2025 211.212 23.9456C211.49 23.6879 211.672 23.328 211.696 22.9164C211.723 22.4936 211.575 22.0992 211.315 21.8044C211.055 21.5096 210.682 21.3145 210.259 21.2893C207.128 21.0959 203.972 21 200.817 21C197.661 21 194.506 21.0959 191.372 21.2893C190.951 21.3145 190.578 21.5096 190.318 21.8044C190.058 22.0991 189.91 22.4933 189.936 22.9172C189.962 23.3338 190.148 23.6965 190.439 23.9548ZM114.538 78.6265C113.91 75.2135 113.91 71.754 114.538 68.3421C114.615 67.9248 114.515 67.5157 114.292 67.1916C114.069 66.8676 113.723 66.6287 113.307 66.5518C113.214 66.535 113.124 66.5273 113.034 66.5273C112.667 66.5273 112.32 66.6582 112.049 66.8833C111.783 67.1047 111.589 67.417 111.522 67.7858C110.826 71.566 110.826 75.4004 111.521 79.1835C111.588 79.5509 111.781 79.8633 112.046 80.0849C112.316 80.3105 112.662 80.4419 113.027 80.4419C113.119 80.4419 113.209 80.4335 113.308 80.4165C113.723 80.3396 114.069 80.1006 114.292 79.7765C114.515 79.4524 114.614 79.0434 114.538 78.6265ZM211.096 125.195C211.356 124.9 211.504 124.506 211.477 124.082C211.452 123.665 211.266 123.302 210.975 123.044C210.693 122.793 210.309 122.64 209.853 122.641C203.711 123.019 197.484 123.019 191.267 122.64C190.854 122.64 190.479 122.796 190.202 123.053C189.924 123.311 189.742 123.671 189.718 124.082C189.691 124.505 189.839 124.9 190.099 125.195C190.359 125.49 190.732 125.685 191.154 125.711C194.286 125.904 197.441 126 200.597 126C203.753 126 206.908 125.904 210.041 125.71C210.463 125.685 210.836 125.49 211.096 125.195ZM289.68 67.79C290.374 71.5721 290.373 75.4074 289.679 79.1864C289.611 79.5547 289.419 79.8675 289.153 80.0895C288.883 80.3154 288.537 80.447 288.171 80.447C288.08 80.447 287.987 80.4383 287.892 80.4208C287.476 80.3438 287.13 80.1047 286.907 79.7805C286.685 79.4563 286.585 79.0473 286.662 78.6306C287.288 75.2195 287.289 71.759 286.663 68.346C286.587 67.9284 286.686 67.519 286.909 67.1949C287.132 66.871 287.478 66.6323 287.894 66.556C287.989 66.5385 288.083 66.5299 288.176 66.5299C288.542 66.5299 288.887 66.6616 289.156 66.8874C289.421 67.1096 289.613 67.4226 289.68 67.79ZM148.711 51.3843C139.869 58.087 135.254 66.386 135.772 74.7753C136.343 84.0264 142.993 92.7471 154.43 99.3671C154.813 99.5901 155.2 99.8089 155.592 100.024C155.944 100.219 156.184 100.539 156.288 100.898C156.391 101.257 156.358 101.656 156.163 102.008C156.033 102.245 155.846 102.432 155.629 102.561C155.405 102.694 155.148 102.764 154.887 102.764C154.649 102.764 154.407 102.705 154.184 102.582C153.777 102.356 153.372 102.129 152.972 101.896C140.613 94.7428 133.494 85.1643 132.864 74.9561C132.286 65.599 137.271 56.3923 146.956 49.0532C147.218 48.8545 147.527 48.7577 147.832 48.7577C148.272 48.7577 148.709 48.9575 148.996 49.3383C149.239 49.6602 149.328 50.0499 149.276 50.42C149.225 50.7902 149.032 51.1408 148.711 51.3843ZM241.383 105.365C241.751 105.203 242.018 104.906 242.153 104.557C242.288 104.209 242.29 103.808 242.128 103.439C242.009 103.17 241.819 102.955 241.59 102.806C241.355 102.653 241.077 102.57 240.793 102.57C240.597 102.57 240.399 102.609 240.209 102.692C220.718 111.308 194.806 112.875 172.586 106.783C172.196 106.677 171.801 106.739 171.478 106.924C171.155 107.109 170.902 107.418 170.797 107.807C170.691 108.195 170.752 108.591 170.937 108.916C171.122 109.24 171.431 109.494 171.819 109.6C181.038 112.128 190.879 113.371 200.657 113.371C215.104 113.371 229.415 110.658 241.383 105.365ZM268.382 73.4291C268.403 82.2816 263.395 90.9857 254.238 97.9231C253.975 98.123 253.666 98.2191 253.36 98.2191C252.918 98.2191 252.483 98.0183 252.197 97.6388C251.954 97.3169 251.865 96.9272 251.916 96.5571C251.967 96.1868 252.159 95.8361 252.48 95.5925C260.858 89.2458 265.487 81.3836 265.468 73.4359C265.448 65.4609 260.753 57.5842 252.294 51.2387C251.972 50.9971 251.779 50.6474 251.725 50.2774C251.672 49.9072 251.76 49.5167 252.001 49.1931C252.286 48.8117 252.725 48.6078 253.169 48.6078C253.473 48.6078 253.779 48.7021 254.039 48.8991C263.281 55.8339 268.36 64.5506 268.382 73.4291ZM160.984 44.2828C184.412 33.9227 217.085 33.9614 240.435 44.3802C240.629 44.4662 240.829 44.5055 241.028 44.5055C241.311 44.5055 241.588 44.4223 241.823 44.2691C242.052 44.1205 242.241 43.9062 242.359 43.6382C242.523 43.2712 242.522 42.8713 242.389 42.5224C242.255 42.1733 241.989 41.8753 241.621 41.7111C229.558 36.3287 215.081 33.6344 200.601 33.6344C186.216 33.6344 171.829 36.2938 159.806 41.6106C159.438 41.7729 159.171 42.0699 159.036 42.4184C158.901 42.7672 158.899 43.1675 159.061 43.5356C159.224 43.9048 159.521 44.1735 159.869 44.3089C160.217 44.4445 160.617 44.4465 160.984 44.2828ZM198.032 51.2029C197.783 51.4808 197.428 51.6634 197.026 51.6846C187.881 52.1635 179.277 54.4873 172.798 58.2356C166.044 62.1463 162.092 67.2682 161.735 72.6899C161.416 77.5603 164.086 82.4001 169.2 86.3379C169.52 86.5831 169.709 86.9353 169.758 87.3062C169.806 87.6769 169.713 88.0664 169.468 88.3858C169.182 88.7598 168.75 88.9573 168.312 88.9573C168.003 88.9573 167.691 88.8594 167.425 88.6549C161.481 84.0776 158.445 78.3325 158.828 72.497C159.246 66.1217 163.669 60.1473 171.341 55.7059C178.201 51.7367 187.267 49.2696 196.873 48.7667C197.306 48.7657 197.668 48.9141 197.933 49.1537C198.209 49.4031 198.383 49.7527 198.404 50.1491C198.426 50.5512 198.282 50.9247 198.032 51.2029ZM241.143 79.6579C243.009 75.2914 242.879 70.615 240.547 66.1009C240.419 65.854 240.231 65.6596 240.011 65.5254C239.783 65.3866 239.521 65.3126 239.253 65.3126C239.027 65.3126 238.799 65.3639 238.583 65.4753C238.225 65.6619 237.977 65.9752 237.864 66.3316C237.752 66.6877 237.774 67.0869 237.96 67.445C239.888 71.1775 239.949 75.0727 238.317 78.7352C236.666 82.4405 233.295 85.9021 228.401 88.7343C216.899 95.3924 199.19 97.2446 184.336 93.3582C183.943 93.2589 183.551 93.3255 183.23 93.5135C182.909 93.7019 182.66 94.0121 182.559 94.4011C182.457 94.7933 182.523 95.1876 182.711 95.5096C182.9 95.8318 183.211 96.0818 183.601 96.184C188.994 97.5959 194.751 98.2809 200.476 98.2809C211.27 98.2809 221.946 95.8444 229.857 91.265C235.471 88.0164 239.293 83.9865 241.143 79.6579ZM236.591 52.0452C236.606 52.4343 236.786 58.6265 232.706 65.3124C230.609 68.7501 227.385 72.3202 222.429 75.2935C209.52 83.0345 187.434 83.8722 187.434 83.8722C186.298 83.9142 184.724 84.6219 183.937 85.4454C183.937 85.4454 167.106 103.046 163.386 108.222C163.102 108.616 162.656 108.828 162.204 108.828C161.907 108.828 161.61 108.737 161.354 108.552C161.027 108.317 160.827 107.971 160.767 107.602C160.707 107.232 160.787 106.84 161.022 106.512C164.764 101.308 181.566 83.6638 181.566 83.6638C182.354 82.8364 183.03 81.2223 183.067 80.0783C183.067 80.0783 183.439 67.547 197.162 59.3163C211.323 50.8234 234.165 50.6467 235.132 50.6433C235.524 50.6433 235.881 50.7979 236.143 51.0499C236.406 51.3028 236.575 51.6538 236.591 52.0452ZM229.558 64.3728C227.615 67.3759 224.828 70.4496 220.932 72.7862C210.562 79.007 190.043 80.7337 190.043 80.7337C189.795 80.7547 189.597 80.7486 189.452 80.7116C189.497 80.4894 189.639 80.3513 189.836 80.1994C189.836 80.1994 207.22 66.793 219.671 60.926C220.035 60.7542 220.295 60.451 220.421 60.0996C220.548 59.748 220.54 59.3479 220.369 58.9834C220.199 58.6176 219.896 58.3562 219.545 58.2293C219.193 58.1024 218.794 58.1103 218.431 58.2825C205.396 64.4235 187.297 78.5314 187.256 78.5635L187.256 78.5635C187.002 78.7609 186.79 78.8799 186.62 78.8799C186.473 78.6405 186.488 78.4092 186.554 78.116C186.554 78.116 188.896 67.6783 198.658 61.8236C210.419 54.7684 231.8 53.6998 231.8 53.6998C231.8 53.6998 231.802 53.6995 231.806 53.699C231.911 53.686 233.173 53.5299 233.459 53.8407C233.51 53.8862 233.498 53.9734 233.484 54.0661C233.478 54.1072 233.472 54.1493 233.471 54.1894C233.465 54.4822 233.421 54.8764 233.335 55.3534C233.188 56.1699 232.916 57.2217 232.494 58.4199C231.873 60.1826 230.924 62.2603 229.558 64.3728Z" fill="#489FDF"/>
</svg>
